<svg version="1" xmlns="http://www.w3.org/2000/svg" width="346.667" height="346.667" viewBox="0 0 260.000000 260.000000"><path d="M123.3 2.7c3.2.2 8.1.2 11 0 2.9-.2.3-.3-5.8-.3-6 0-8.4.1-5.2.3zM111.3 3.7c.9.2 2.3.2 3 0 .6-.3-.1-.5-1.8-.5-1.6 0-2.2.2-1.2.5zM146.3 3.7c.9.2 2.5.2 3.5 0 .9-.3.1-.5-1.8-.5-1.9 0-2.7.2-1.7.5zM105.8 4.7c.7.3 1.6.2 1.9-.1.4-.3-.2-.6-1.3-.5-1.1 0-1.4.3-.6.6zM152.8 4.7c.6.2 1.8.2 2.5 0 .6-.3.1-.5-1.3-.5-1.4 0-1.9.2-1.2.5zM100.8 5.7c.7.3 1.6.2 1.9-.1.4-.3-.2-.6-1.3-.5-1.1 0-1.4.3-.6.6zM157.8 5.7c.7.3 1.6.2 1.9-.1.4-.3-.2-.6-1.3-.5-1.1 0-1.4.3-.6.6zM161.8 6.7c.7.3 1.6.2 1.9-.1.4-.3-.2-.6-1.3-.5-1.1 0-1.4.3-.6.6zM170 9c.8.5 2 1 2.5 1 .6 0 .3-.5-.5-1s-1.9-1-2.5-1c-.5 0-.3.5.5 1zM178 12c.8.5 2 1 2.5 1 .6 0 .3-.5-.5-1s-1.9-1-2.5-1c-.5 0-.3.5.5 1zM72.8 15.6c-3.9 2.1-3.5 2.8.5.8 3.7-1.9 4.4-2.4 3.1-2.4-.5.1-2.1.8-3.6 1.6zM192.5 18.7c.6.6 2.8 2 5 3.2 2.2 1.3 3.1 1.5 2 .6-2.2-1.8-8.6-5.3-7-3.8zM116.5 22.6C83 27.9 53.7 47.7 36.9 76.2c-11 18.6-15.8 40.8-14 64.8.8 11.2 1.4 13.7 5.4 24.2 7 18.2 13 27.4 26.5 41.1 9.1 9.2 19.2 16.4 30.5 21.7 14.4 6.7 14.7 6.4 4.3-4.5l-9.2-9.6-6.1.3c-3.4.1-6.5-.1-6.9-.5-3-3-5.4-32.3-3.5-43.2 1.3-7.5 6.9-20.5 12-27.9 1.7-2.4 3.1-4.7 3.1-5.1 0-.4-1.3-2.6-3-5-7.2-10.4-8.3-22.8-3.1-33.5 1.2-2.4 1.5-4.5 1-6.5-1.1-4.8-1-17.9.2-21.4 1.6-4.5 4.7-4.9 12.1-1.6l6.1 2.8 5.6-1.8c19.4-6.1 48.3-5.9 65.3.5l5.7 2.1 6.3-2.7c9-3.8 12.3-4.1 13.8-1.4 2 3.7 2.9 13.6 1.9 20.7-.8 5.3-.6 7.3.5 9.8 2.4 5.1 3.8 12.7 3.1 17.5-.7 5.2-5.6 15.8-8.4 18.4-2 1.8-2 1.9 1.8 7.5 5.4 7.9 9.9 17.1 11.6 23.8 2.2 8.5 2 25.6-.6 36.4-2.6 11.3-3.5 12.2-10.8 11.5-3.1-.4-6.1-.3-6.6.1-.6.5-3.4 3.6-6.4 7.1-7.3 8.6-5.9 9.9 4.6 4.2 30.1-16.2 51.2-44.8 56.8-76.7 1.9-11 1.9-28.9 0-39-7.8-41.2-39.4-74.6-80.5-85.2-8.4-2.2-32-3.7-39.5-2.5zM53.9 27.7c-1.3 1.6-1.2 1.7.4.4.9-.7 1.7-1.5 1.7-1.7 0-.8-.8-.3-2.1 1.3zM209 29.7c2.5 2.1 7.7 6.7 11.5 10.3l7 6.4-5.5-5.7c-3-3.2-8.2-7.8-11.5-10.3-4.5-3.4-4.9-3.6-1.5-.7zM49.9 30.7c-1.3 1.6-1.2 1.7.4.4.9-.7 1.7-1.5 1.7-1.7 0-.8-.8-.3-2.1 1.3zM40 39.5c-4.1 4.1-7.2 7.5-6.9 7.5.2 0 3.8-3.4 7.9-7.5 4.1-4.1 7.2-7.5 6.9-7.5-.2 0-3.8 3.4-7.9 7.5zM228.5 49c1 1.1 2 2 2.3 2 .3 0-.3-.9-1.3-2s-2-2-2.3-2c-.3 0 .3.9 1.3 2zM30.4 50.2l-1.9 2.3 2.3-1.9c2.1-1.8 2.7-2.6 1.9-2.6-.2 0-1.2 1-2.3 2.2zM231 52.4c0 .2.8 1 1.8 1.7 1.5 1.3 1.6 1.2.3-.4s-2.1-2.1-2.1-1.3zM26.9 54.7c-1.3 1.6-1.2 1.7.4.4.9-.7 1.7-1.5 1.7-1.7 0-.8-.8-.3-2.1 1.3zM24.4 58.2c-.4.7-1.4 2.4-2.2 3.8-1.4 2.4-1.3 2.4.3.5 2-2.4 3.7-5.5 3.1-5.5-.3 0-.8.6-1.2 1.2zM18.5 68c-.9 1.6-1.3 3-1.1 3 .3 0 1.2-1.4 2.1-3 .9-1.7 1.3-3 1.1-3-.3 0-1.2 1.3-2.1 3zM244.2 73.5c1.2 2.4 2.3 4.3 2.6 4.1.4-.5-3.6-8.6-4.3-8.6-.3 0 .5 2 1.7 4.5zM12.6 79.5c-.9 2.6-.7 3.2.5 1.2.6-1 .9-2.1.6-2.3-.2-.3-.7.2-1.1 1.1zM248 81.5c0 .5.5 1.7 1 2.5s1 1 1 .5c0-.6-.5-1.7-1-2.5s-1-1.1-1-.5z"/><path d="M95.9 92.4c-5.5 1.9-9.6 5.3-12.3 9.9-3.5 6-4.1 10.6-2.2 16.9 1.8 5.8 3.3 8 8.6 12 10.7 8.1 26.9 4.7 33.8-7.1 5.2-8.8 2.8-21.5-5.1-27.5-7.1-5.5-15.2-6.9-22.8-4.2zm13.1 10.1c10 5.2 9.1 19-1.5 22.5-4.3 1.4-10.3-.1-13.4-3.4-3.1-3.3-4-10.6-1.7-14.1 3.8-5.8 10.9-7.9 16.6-5zM152.3 92.7c-6 2.1-12.8 9.9-14.2 16.1-3 14.1 7.9 26.7 23.1 26.6 5.6 0 7.4-.5 11.4-3 5.6-3.4 10.3-10.3 11.1-16.3 2.2-16.4-15-29.3-31.4-23.4zm14.2 9.9c11.9 5.6 7.4 22.7-5.9 22.7-13.5 0-17.3-17.5-5.1-22.9 4-1.8 7-1.7 11 .2zM7.1 95.6c0 1.1.3 1.4.6.6.3-.7.2-1.6-.1-1.9-.3-.4-.6.2-.5 1.3zM253.1 96.6c0 1.1.3 1.4.6.6.3-.7.2-1.6-.1-1.9-.3-.4-.6.2-.5 1.3zM254.1 100.6c0 1.1.3 1.4.6.6.3-.7.2-1.6-.1-1.9-.3-.4-.6.2-.5 1.3zM5.1 103.6c0 1.1.3 1.4.6.6.3-.7.2-1.6-.1-1.9-.3-.4-.6.2-.5 1.3zM255.1 104.6c0 1.1.3 1.4.6.6.3-.7.2-1.6-.1-1.9-.3-.4-.6.2-.5 1.3zM4.1 108.6c0 1.1.3 1.4.6.6.3-.7.2-1.6-.1-1.9-.3-.4-.6.2-.5 1.3zM256.2 110.5c0 1.6.2 2.2.5 1.2.2-.9.2-2.3 0-3-.3-.6-.5.1-.5 1.8zM3.3 116.5c0 2.7.2 3.8.4 2.2.2-1.5.2-3.7 0-5-.2-1.2-.4 0-.4 2.8zM257.4 130c0 8.5.2 12 .3 7.7.2-4.2.2-11.2 0-15.5-.1-4.2-.3-.7-.3 7.8zM128.5 128.7c-4.1 4-4.8 14.1-1.4 20.9 3.7 7.8 7.7 6.7 11.4-3.1 4.2-10.8-3.5-24.4-10-17.8zM3.3 143c0 2.5.2 3.5.4 2.2.2-1.2.2-3.2 0-4.5-.2-1.2-.4-.2-.4 2.3zM256.2 149.5c0 1.6.2 2.2.5 1.2.2-.9.2-2.3 0-3-.3-.6-.5.1-.5 1.8zM4.1 151.6c0 1.1.3 1.4.6.6.3-.7.2-1.6-.1-1.9-.3-.4-.6.2-.5 1.3zM255.2 155c0 1.4.2 1.9.5 1.2.2-.6.2-1.8 0-2.5-.3-.6-.5-.1-.5 1.3zM5.1 156.6c0 1.1.3 1.4.6.6.3-.7.2-1.6-.1-1.9-.3-.4-.6.2-.5 1.3zM254.1 159.6c0 1.1.3 1.4.6.6.3-.7.2-1.6-.1-1.9-.3-.4-.6.2-.5 1.3zM6.1 160.6c0 1.1.3 1.4.6.6.3-.7.2-1.6-.1-1.9-.3-.4-.6.2-.5 1.3zM100.2 161c-4.3 2.7-6.2 7.4-6.2 15.7.1 19.7 11.8 40.6 27.2 48.3 11.6 5.8 20.4 3.6 31.9-7.9 11.7-11.7 16.9-24 16.9-39.9 0-10-1.7-14.3-6.5-16.6-4.6-2.2-7.3-2-20.2 1.1l-11.3 2.7-11.2-2.7c-13.4-3.3-16.2-3.3-20.6-.7zM253.1 163.6c0 1.1.3 1.4.6.6.3-.7.2-1.6-.1-1.9-.3-.4-.6.2-.5 1.3zM10 173.5c0 .5.5 1.7 1 2.5s1 1 1 .5c0-.6-.5-1.7-1-2.5s-1-1.1-1-.5zM248.6 176.5c-.9 2.6-.7 3.2.5 1.2.6-1 .9-2.1.6-2.3-.2-.3-.7.2-1.1 1.1zM12 178.5c0 .5.5 1.7 1 2.5s1 1 1 .5c0-.6-.5-1.7-1-2.5s-1-1.1-1-.5zM244.2 186.5c-1.2 2.5-2 4.5-1.7 4.5.7 0 4.7-8.1 4.3-8.6-.3-.2-1.4 1.7-2.6 4.1zM18.5 192c.9 1.6 1.8 3 2.1 3 .2 0-.2-1.4-1.1-3-.9-1.7-1.8-3-2.1-3-.2 0 .2 1.3 1.1 3zM21.9 197.5c.5 1.1 1.7 2.9 2.6 4l1.6 2-1-2c-.5-1.1-1.7-2.9-2.6-4l-1.6-2 1 2zM29 208c1.7 2.2 3.4 4 3.7 4 .2 0-1-1.8-2.7-4-1.7-2.2-3.4-4-3.7-4-.2 0 1 1.8 2.7 4zM231.9 206.7c-1.3 1.6-1.2 1.7.4.4 1.6-1.3 2.1-2.1 1.3-2.1-.2 0-1 .8-1.7 1.7zM227.9 211.7l-2.4 2.8 2.8-2.4c1.5-1.4 2.7-2.6 2.7-2.8 0-.8-.8-.1-3.1 2.4zM38.5 218.8c3.3 3.5 7.8 7.7 10 9.4 4.6 3.6 4.1 3-7.5-7.7-7.5-7-7.8-7.2-2.5-1.7zM220 220.7l-5.5 5.8 5.8-5.5c5.3-5 6.2-6 5.4-6-.1 0-2.7 2.6-5.7 5.7zM211.4 228.2l-1.9 2.3 2.3-1.9c2.1-1.8 2.7-2.6 1.9-2.6-.2 0-1.2 1-2.3 2.2zM206.4 232.2l-1.9 2.3 2.3-1.9c2.1-1.8 2.7-2.6 1.9-2.6-.2 0-1.2 1-2.3 2.2zM53 231.4c0 .2.8 1 1.8 1.7 1.5 1.3 1.6 1.2.3-.4s-2.1-2.1-2.1-1.3zM198.1 237.5c-6.6 4.2-8 5.6-2.6 2.6 4-2.2 9.4-6.1 8.5-6.1-.3 0-2.9 1.6-5.9 3.5zM63 238.4c0 .3.9 1 2 1.6 1.1.6 2 .8 2 .6 0-.3-.9-1-2-1.6-1.1-.6-2-.8-2-.6zM72.7 244.1c.7.7 1.5 1 1.8.7.3-.3-.2-.9-1.2-1.2-1.4-.6-1.5-.5-.6.5zM81 248c.8.5 2 1 2.5 1 .6 0 .3-.5-.5-1s-1.9-1-2.5-1c-.5 0-.3.5.5 1zM86 250c.8.5 2.2.9 3 .9 1 0 .8-.3-.5-.9-2.7-1.2-4.3-1.2-2.5 0zM97.8 253.7c.7.3 1.6.2 1.9-.1.4-.3-.2-.6-1.3-.5-1.1 0-1.4.3-.6.6zM161.8 253.7c.7.3 1.6.2 1.9-.1.4-.3-.2-.6-1.3-.5-1.1 0-1.4.3-.6.6zM101.8 254.7c.7.3 1.6.2 1.9-.1.4-.3-.2-.6-1.3-.5-1.1 0-1.4.3-.6.6zM157.8 254.7c.7.3 1.6.2 1.9-.1.4-.3-.2-.6-1.3-.5-1.1 0-1.4.3-.6.6zM106.8 255.7c.7.3 1.6.2 1.9-.1.4-.3-.2-.6-1.3-.5-1.1 0-1.4.3-.6.6zM152.8 255.7c.7.3 1.6.2 1.9-.1.4-.3-.2-.6-1.3-.5-1.1 0-1.4.3-.6.6zM112.8 256.7c.6.2 1.8.2 2.5 0 .6-.3.1-.5-1.3-.5-1.4 0-1.9.2-1.2.5zM145.8 256.7c.6.2 1.8.2 2.5 0 .6-.3.1-.5-1.3-.5-1.4 0-1.9.2-1.2.5zM125.8 257.7c2.9.2 7.4.2 10 0 2.6-.2.2-.3-5.3-.3s-7.6.1-4.7.3z"/></svg>